<?xml version="1.0" encoding="UTF-8"?>
<!DOCTYPE svg PUBLIC "-//W3C//DTD SVG 1.1//EN" "http://www.w3.org/Graphics/SVG/1.1/DTD/svg11.dtd">
<svg xmlns="http://www.w3.org/2000/svg" xml:space="preserve" width="1224px" height="293px" version="1.1" style="shape-rendering:geometricPrecision; text-rendering:geometricPrecision; image-rendering:optimizeQuality; fill-rule:evenodd; clip-rule:evenodd"
viewBox="0 0 1198 286.66"
 xmlns:xlink="http://www.w3.org/1999/xlink"
 xmlns:xodm="http://www.corel.com/coreldraw/odm/2003">
 <defs>
  <style type="text/css">
   <![CDATA[
    .fil1 {fill:#2B2B2A;fill-rule:nonzero}
    .fil0 {fill:blue;fill-rule:nonzero}
   ]]>
  </style>
 </defs>
 <g id="Layer_x0020_1">
  <metadata id="CorelCorpID_0Corel-Layer"/>
  <path class="fil0" d="M481.18 137.76c0,-8.81 -1.18,-16.32 -3.54,-22.54 -2.4,-6.21 -6.1,-10.93 -11.13,-14.15 -5.04,-3.23 -11.6,-4.88 -19.75,-4.88 -7.27,0 -13.84,1.61 -19.62,4.84 -5.82,3.22 -10.66,7.82 -14.59,13.84 -2.32,-6.02 -6.06,-10.66 -11.21,-13.84 -5.15,-3.23 -11.8,-4.84 -19.98,-4.84 -7.23,0 -13.41,1.61 -18.52,4.8 -5.11,3.18 -9.28,7.75 -12.43,13.68l0 -16 -29.49 0 0 108.54 29.49 0 0 -66.07c0,-4.8 0.79,-8.85 2.36,-12.15 1.57,-3.3 3.78,-5.82 6.61,-7.51 2.83,-1.69 6.13,-2.52 9.91,-2.52 5.58,0 9.63,1.85 12.19,5.55 2.56,3.69 3.82,9.24 3.82,16.63l0 66.07 30.51 0 0 -66.07c0,-4.8 0.79,-8.85 2.36,-12.15 1.58,-3.3 3.78,-5.82 6.61,-7.51 2.83,-1.69 6.14,-2.52 9.91,-2.52 5.59,0 9.64,1.85 12.19,5.55 2.52,3.69 3.82,9.24 3.82,16.63l0 66.07 30.48 0 0 -69.45zm132.49 -39.09l-31.85 0 -34.34 85.93 15.06 0.55 -34.84 -86.48 -34.06 0 45.31 97.77 -27.41 62.68 31.34 0 70.79 -160.45zm43.46 160.45l0 -160.45 -30.48 0 0 160.45 30.48 0zm89.35 -106.18c0,-12.47 -2.48,-22.97 -7.39,-31.5 -4.88,-8.5 -11.29,-14.99 -19.2,-19.47 -7.9,-4.44 -16.47,-6.68 -25.72,-6.68 -9.28,0 -17.38,2.36 -24.22,7.11 -6.85,4.72 -12.08,11.37 -15.77,19.98 -3.7,8.58 -5.55,18.76 -5.55,30.56 0,11.64 1.85,21.79 5.55,30.44 3.69,8.69 8.92,15.38 15.77,20.1 6.84,4.75 14.94,7.11 24.22,7.11 9.25,0 17.82,-2.24 25.72,-6.68 7.91,-4.49 14.32,-11.01 19.2,-19.59 4.91,-8.61 7.39,-19.07 7.39,-31.38zm-31.78 0c0,6.45 -1.34,11.96 -4.01,16.48 -2.67,4.56 -6.21,7.98 -10.66,10.34 -4.44,2.36 -9.36,3.5 -14.78,3.5 -4.49,0 -8.89,-1.14 -13.26,-3.42 -4.32,-2.28 -7.9,-5.66 -10.66,-10.15 -2.79,-4.52 -4.2,-10.1 -4.2,-16.75 0,-6.65 1.41,-12.23 4.2,-16.75 2.76,-4.49 6.34,-7.87 10.66,-10.15 4.37,-2.28 8.77,-3.42 13.26,-3.42 5.42,0 10.34,1.14 14.78,3.5 4.45,2.36 7.99,5.78 10.66,10.3 2.67,4.49 4.01,9.99 4.01,16.52zm105.79 56.63c13.14,0 24.35,-2.55 33.67,-7.67 9.32,-5.11 16.83,-12.78 22.57,-22.96l-26.78 -8.38c-3.03,5.27 -7,9.2 -11.84,11.84 -4.88,2.59 -10.62,3.93 -17.26,3.93 -6.06,0 -11.17,-1.34 -15.42,-4.01 -4.21,-2.68 -7.39,-6.57 -9.56,-11.64 -2.16,-5.08 -3.22,-11.21 -3.14,-18.41 0.08,-7.59 1.18,-13.92 3.3,-18.99 2.12,-5.08 5.19,-8.89 9.28,-11.49 4.05,-2.59 9.05,-3.89 15.03,-3.89 4.83,0 9.08,1.06 12.66,3.18 3.58,2.13 6.37,5.12 8.41,8.97 2.01,3.86 3.03,8.42 3.03,13.73 0,1.1 -0.27,2.44 -0.82,4.09 -0.55,1.61 -1.14,2.95 -1.81,4.01l8.14 -10.86 -70.36 0 0 18.64 97.18 0c0.12,-0.9 0.2,-2.12 0.28,-3.65 0.03,-1.5 0.03,-3.03 0.03,-4.53 0,-11.6 -2.2,-21.55 -6.56,-29.77 -4.41,-8.25 -10.78,-14.55 -19.16,-18.87 -8.37,-4.37 -18.56,-6.53 -30.51,-6.53 -12.08,0 -22.5,2.32 -31.31,6.92 -8.81,4.64 -15.61,11.17 -20.37,19.62 -4.8,8.46 -7.2,18.49 -7.2,30.09 0,11.44 2.4,21.39 7.2,29.85 4.8,8.45 11.6,15.02 20.41,19.74 8.77,4.68 19.11,7.04 30.91,7.04zm103.12 -56.63c0,-6.06 1.38,-11.48 4.17,-16.24 2.79,-4.76 6.57,-8.5 11.32,-11.21 4.8,-2.75 10.11,-4.09 15.97,-4.09 4.48,0 8.93,0.71 13.33,2.08 4.41,1.42 8.42,3.39 12.08,5.94 3.61,2.56 6.41,5.63 8.29,9.17l0 -31.39c-3.77,-3.26 -8.69,-5.9 -14.74,-7.9 -6.06,-2.01 -13.06,-2.99 -20.96,-2.99 -11.57,0 -21.91,2.36 -31.11,7.12 -9.17,4.72 -16.4,11.32 -21.67,19.78 -5.31,8.49 -7.95,18.36 -7.95,29.73 0,11.21 2.64,21.04 7.95,29.61 5.27,8.54 12.5,15.18 21.67,19.9 9.2,4.76 19.54,7.12 31.11,7.12 7.9,0 14.9,-0.98 20.96,-2.99 6.05,-2 10.97,-4.72 14.74,-8.1l0 -31.26c-1.88,3.38 -4.6,6.37 -8.1,9 -3.5,2.64 -7.47,4.68 -11.83,6.1 -4.37,1.45 -8.97,2.16 -13.77,2.16 -5.86,0 -11.17,-1.3 -15.97,-3.93 -4.75,-2.68 -8.53,-6.33 -11.32,-11.05 -2.79,-4.68 -4.17,-10.23 -4.17,-16.56zm78.14 -54.27l0 25.8 66.9 0 0 -25.8 -66.9 0zm18.72 -37.76l0 146.3 29.5 0 0 -146.3 -29.5 0zm57.11 92.03c0,11.21 2.63,21.04 7.9,29.61 5.23,8.54 12.43,15.18 21.51,19.9 9.13,4.76 19.39,7.12 30.8,7.12 11.52,0 21.78,-2.36 30.83,-7.12 9.08,-4.72 16.24,-11.36 21.47,-19.9 5.27,-8.57 7.91,-18.4 7.91,-29.61 0,-11.37 -2.64,-21.28 -7.91,-29.77 -5.23,-8.5 -12.39,-15.1 -21.47,-19.86 -9.05,-4.72 -19.31,-7.12 -30.83,-7.12 -11.41,0 -21.67,2.4 -30.8,7.12 -9.08,4.76 -16.28,11.36 -21.51,19.86 -5.27,8.49 -7.9,18.4 -7.9,29.77zm31.26 0c0,-6.21 1.3,-11.64 3.85,-16.28 2.6,-4.64 6.06,-8.26 10.47,-10.82 4.36,-2.55 9.24,-3.85 14.63,-3.85 5.38,0 10.26,1.3 14.63,3.85 4.4,2.56 7.86,6.18 10.46,10.82 2.55,4.64 3.85,10.07 3.85,16.28 0,6.21 -1.3,11.6 -3.85,16.2 -2.6,4.6 -6.06,8.22 -10.46,10.78 -4.37,2.59 -9.25,3.85 -14.63,3.85 -5.39,0 -10.27,-1.26 -14.63,-3.85 -4.41,-2.56 -7.87,-6.18 -10.47,-10.78 -2.55,-4.6 -3.85,-9.99 -3.85,-16.2z"/>
  <path class="fil0" d="M142.95 286.66c-19.88,0 -38.48,-3.76 -55.8,-11.27 -17.33,-7.52 -32.43,-17.78 -45.3,-30.77 -12.86,-13 -23.06,-28.16 -30.57,-45.49 -7.52,-17.32 -11.28,-35.92 -11.28,-55.8 0,-19.87 3.76,-38.48 11.28,-55.8 7.51,-17.33 17.71,-32.49 30.57,-45.49 12.87,-12.99 27.97,-23.25 45.3,-30.77 17.32,-7.51 35.92,-11.27 55.8,-11.27 19.87,0 38.54,3.76 55.99,11.27 17.46,7.52 32.62,17.78 45.49,30.77 12.87,13 23.06,28.16 30.57,45.49 7.52,17.32 11.28,35.93 11.28,55.8 0,19.88 -3.76,38.48 -11.28,55.8 -7.51,17.33 -17.7,32.49 -30.57,45.49 -12.87,12.99 -28.03,23.25 -45.49,30.77 -17.45,7.51 -36.12,11.27 -55.99,11.27zm0 -40.51c14.27,0 27.58,-2.68 39.94,-8.03 12.36,-5.35 23.12,-12.74 32.3,-22.17 9.17,-9.43 16.37,-20.32 21.59,-32.68 5.23,-12.36 7.84,-25.67 7.84,-39.94 0,-14.01 -2.61,-27.33 -7.84,-39.94 -5.22,-12.61 -12.42,-23.57 -21.59,-32.87 -9.18,-9.3 -19.94,-16.69 -32.3,-22.17 -12.36,-5.48 -25.67,-8.22 -39.94,-8.22 -14.27,0 -27.58,2.74 -39.94,8.22 -12.36,5.48 -23.06,12.87 -32.11,22.17 -9.04,9.3 -16.18,20.26 -21.4,32.87 -5.23,12.61 -7.84,25.93 -7.84,39.94 0,14.27 2.61,27.58 7.84,39.94 5.22,12.36 12.36,23.25 21.4,32.68 9.05,9.43 19.75,16.82 32.11,22.17 12.36,5.35 25.67,8.03 39.94,8.03z"/>
  <path class="fil0" d="M141.2 224.9c-11.47,0 -22.15,-2.13 -32.06,-6.41 -9.91,-4.27 -18.55,-10.1 -25.93,-17.48 -7.39,-7.38 -13.21,-16.03 -17.49,-25.94 -4.27,-9.91 -6.41,-20.59 -6.41,-32.05 0,-11.27 2.14,-21.91 6.41,-31.91 4.28,-10.01 10.1,-18.7 17.49,-26.08 7.38,-7.38 16.02,-13.21 25.93,-17.49 9.91,-4.27 20.59,-6.41 32.06,-6.41 11.26,0 21.9,2.14 31.91,6.41 10,4.28 18.69,10.11 26.08,17.49 7.38,7.38 13.21,16.07 17.48,26.08 4.28,10 6.41,20.64 6.41,31.91 0,11.46 -2.13,22.14 -6.41,32.05 -4.27,9.91 -10.1,18.56 -17.48,25.94 -7.39,7.38 -16.08,13.21 -26.08,17.48 -10.01,4.28 -20.65,6.41 -31.91,6.41zm0 -29.43c7.19,0 13.84,-1.36 19.96,-4.08 6.12,-2.72 11.46,-6.46 16.03,-11.22 4.56,-4.76 8.16,-10.29 10.78,-16.61 2.62,-6.31 3.93,-13.16 3.93,-20.54 0,-7.19 -1.31,-13.99 -3.93,-20.4 -2.62,-6.41 -6.22,-12 -10.78,-16.76 -4.57,-4.76 -9.96,-8.5 -16.18,-11.22 -6.21,-2.72 -12.82,-4.08 -19.81,-4.08 -7.19,0 -13.85,1.36 -19.96,4.08 -6.12,2.72 -11.47,6.46 -16.03,11.22 -4.57,4.76 -8.11,10.35 -10.64,16.76 -2.52,6.41 -3.79,13.21 -3.79,20.4 0,7.38 1.27,14.23 3.79,20.54 2.53,6.32 6.07,11.85 10.64,16.61 4.56,4.76 9.91,8.5 16.03,11.22 6.11,2.72 12.77,4.08 19.96,4.08z"/>
  <path class="fil1" d="M726.28 256.47l-5.61 -1.01c0.63,-2.27 1.71,-3.93 3.25,-5.02 1.55,-1.09 3.84,-1.64 6.87,-1.64 2.77,0 4.82,0.34 6.18,0.99 1.34,0.65 2.3,1.48 2.84,2.49 0.55,1 0.83,2.85 0.83,5.54l-0.07 7.22c0,2.06 0.1,3.57 0.3,4.55 0.2,0.97 0.58,2.02 1.12,3.14l-6.13 0c-0.16,-0.42 -0.36,-1.03 -0.59,-1.83 -0.1,-0.37 -0.18,-0.61 -0.22,-0.73 -1.06,1.03 -2.19,1.8 -3.39,2.32 -1.2,0.51 -2.49,0.76 -3.86,0.76 -2.4,0 -4.31,-0.65 -5.69,-1.95 -1.39,-1.31 -2.08,-2.96 -2.08,-4.96 0,-1.32 0.31,-2.5 0.95,-3.54 0.63,-1.04 1.51,-1.82 2.65,-2.37 1.13,-0.55 2.78,-1.03 4.92,-1.45 2.89,-0.54 4.9,-1.05 6.01,-1.52l0 -0.61c0,-1.2 -0.29,-2.04 -0.88,-2.55 -0.59,-0.5 -1.69,-0.76 -3.32,-0.76 -1.11,0 -1.96,0.22 -2.58,0.65 -0.62,0.43 -1.11,1.19 -1.5,2.28zm8.28 5.02c-0.79,0.27 -2.04,0.58 -3.77,0.95 -1.71,0.37 -2.83,0.73 -3.36,1.08 -0.81,0.58 -1.21,1.3 -1.21,2.18 0,0.87 0.32,1.61 0.97,2.24 0.64,0.64 1.46,0.95 2.46,0.95 1.12,0 2.18,-0.37 3.2,-1.1 0.75,-0.55 1.24,-1.24 1.47,-2.05 0.17,-0.52 0.24,-1.53 0.24,-3.01l0 -1.24zm24.54 -12.15l5.77 0 0 3.43c0.75,-1.18 1.76,-2.13 3.04,-2.86 1.28,-0.74 2.7,-1.11 4.26,-1.11 2.71,0 5.02,1.07 6.9,3.2 1.9,2.13 2.85,5.1 2.85,8.9 0,3.9 -0.96,6.94 -2.86,9.1 -1.91,2.17 -4.23,3.25 -6.94,3.25 -1.29,0 -2.46,-0.25 -3.52,-0.76 -1.04,-0.52 -2.15,-1.4 -3.31,-2.65l0 11.79 -6.19 0 0 -32.29zm6.13 11.3c0,2.62 0.52,4.57 1.56,5.82 1.04,1.25 2.31,1.88 3.81,1.88 1.44,0 2.63,-0.58 3.59,-1.73 0.95,-1.15 1.43,-3.04 1.43,-5.66 0,-2.46 -0.49,-4.28 -1.48,-5.47 -0.98,-1.19 -2.2,-1.78 -3.65,-1.78 -1.51,0 -2.77,0.58 -3.77,1.75 -1,1.16 -1.49,2.89 -1.49,5.19zm27.53 12.09l-6.19 0 0 -23.39 5.74 0 0 3.32c0.99,-1.57 1.88,-2.61 2.66,-3.1 0.79,-0.5 1.68,-0.76 2.68,-0.76 1.41,0 2.76,0.4 4.07,1.18l-1.92 5.39c-1.03,-0.67 -2,-1.01 -2.9,-1.01 -0.87,0 -1.6,0.23 -2.2,0.71 -0.61,0.48 -1.08,1.34 -1.42,2.59 -0.35,1.25 -0.52,3.86 -0.52,7.84l0 7.23zm10.19 -12.03c0,-2.06 0.51,-4.05 1.52,-5.97 1.02,-1.92 2.45,-3.39 4.31,-4.4 1.86,-1.01 3.93,-1.53 6.22,-1.53 3.54,0 6.44,1.15 8.7,3.45 2.27,2.3 3.39,5.21 3.39,8.72 0,3.53 -1.14,6.46 -3.42,8.79 -2.28,2.33 -5.16,3.49 -8.62,3.49 -2.15,0 -4.19,-0.48 -6.14,-1.45 -1.94,-0.97 -3.42,-2.39 -4.44,-4.26 -1.01,-1.87 -1.52,-4.15 -1.52,-6.84zm6.35 0.33c0,2.32 0.55,4.1 1.65,5.33 1.1,1.23 2.46,1.85 4.08,1.85 1.61,0 2.97,-0.62 4.06,-1.85 1.09,-1.23 1.64,-3.02 1.64,-5.38 0,-2.28 -0.55,-4.05 -1.64,-5.28 -1.09,-1.24 -2.45,-1.85 -4.06,-1.85 -1.62,0 -2.98,0.61 -4.08,1.85 -1.1,1.23 -1.65,3.01 -1.65,5.33zm44.09 11.7l-5.74 0 0 -3.44c-0.96,1.34 -2.09,2.33 -3.39,2.99 -1.3,0.65 -2.61,0.97 -3.93,0.97 -2.69,0 -4.99,-1.08 -6.91,-3.25 -1.91,-2.16 -2.87,-5.18 -2.87,-9.05 0,-3.97 0.93,-6.99 2.8,-9.05 1.86,-2.06 4.22,-3.1 7.07,-3.1 2.61,0 4.87,1.09 6.78,3.27l0 -11.63 6.19 0 0 32.29zm-16.52 -12.21c0,2.5 0.35,4.3 1.04,5.42 0.99,1.61 2.39,2.43 4.18,2.43 1.43,0 2.64,-0.61 3.64,-1.82 0.99,-1.21 1.5,-3.03 1.5,-5.43 0,-2.69 -0.49,-4.63 -1.46,-5.81 -0.96,-1.18 -2.21,-1.77 -3.72,-1.77 -1.47,0 -2.7,0.59 -3.69,1.75 -0.99,1.17 -1.49,2.91 -1.49,5.23zm38.02 12.21l0 -3.51c-0.85,1.25 -1.98,2.24 -3.36,2.96 -1.39,0.71 -2.85,1.07 -4.4,1.07 -1.57,0 -2.97,-0.34 -4.22,-1.03 -1.25,-0.69 -2.15,-1.66 -2.71,-2.91 -0.56,-1.24 -0.84,-2.97 -0.84,-5.18l0 -14.79 6.19 0 0 10.74c0,3.29 0.11,5.31 0.34,6.05 0.23,0.74 0.64,1.33 1.24,1.76 0.61,0.44 1.37,0.65 2.3,0.65 1.06,0 2,-0.29 2.84,-0.87 0.83,-0.58 1.4,-1.3 1.71,-2.15 0.31,-0.87 0.47,-2.97 0.47,-6.32l0 -9.86 6.19 0 0 23.39 -5.75 0zm32.56 -16.48l-6.11 1.1c-0.2,-1.22 -0.67,-2.13 -1.4,-2.75 -0.73,-0.62 -1.67,-0.92 -2.82,-0.92 -1.55,0 -2.78,0.53 -3.69,1.59 -0.92,1.07 -1.38,2.85 -1.38,5.34 0,2.78 0.47,4.74 1.4,5.88 0.93,1.15 2.18,1.72 3.75,1.72 1.18,0 2.13,-0.33 2.89,-1 0.75,-0.67 1.27,-1.82 1.58,-3.45l6.08 1.03c-0.63,2.79 -1.85,4.91 -3.63,6.33 -1.79,1.43 -4.19,2.13 -7.21,2.13 -3.42,0 -6.15,-1.07 -8.18,-3.23 -2.03,-2.16 -3.05,-5.15 -3.05,-8.97 0,-3.86 1.02,-6.86 3.06,-9.01 2.05,-2.16 4.81,-3.24 8.29,-3.24 2.85,0 5.11,0.62 6.79,1.85 1.68,1.22 2.89,3.09 3.63,5.6zm15.41 -6.91l0 4.93 -4.23 0 0 9.43c0,1.91 0.04,3.02 0.12,3.33 0.09,0.32 0.27,0.58 0.55,0.79 0.29,0.2 0.64,0.31 1.05,0.31 0.58,0 1.4,-0.21 2.49,-0.6l0.53 4.8c-1.44,0.61 -3.07,0.92 -4.89,0.92 -1.12,0 -2.13,-0.19 -3.02,-0.55 -0.89,-0.38 -1.55,-0.87 -1.97,-1.46 -0.42,-0.6 -0.71,-1.4 -0.87,-2.42 -0.13,-0.71 -0.2,-2.17 -0.2,-4.36l0 -10.19 -2.84 0 0 -4.93 2.84 0 0 -4.65 6.21 -3.61 0 8.26 4.23 0zm16.57 23.39l0 -32.29 6.19 0 0 11.63c1.9,-2.18 4.16,-3.27 6.78,-3.27 2.85,0 5.2,1.04 7.07,3.1 1.87,2.06 2.8,5.02 2.8,8.89 0,3.99 -0.96,7.07 -2.86,9.23 -1.9,2.16 -4.21,3.23 -6.92,3.23 -1.34,0 -2.66,-0.33 -3.96,-1 -1.3,-0.67 -2.42,-1.65 -3.36,-2.96l0 3.44 -5.74 0zm6.14 -12.21c0,2.42 0.38,4.21 1.14,5.38 1.08,1.65 2.5,2.47 4.28,2.47 1.36,0 2.53,-0.59 3.49,-1.76 0.96,-1.16 1.44,-3 1.44,-5.51 0,-2.67 -0.49,-4.61 -1.46,-5.79 -0.96,-1.18 -2.2,-1.77 -3.72,-1.77 -1.48,0 -2.71,0.58 -3.7,1.73 -0.98,1.16 -1.47,2.9 -1.47,5.25zm18.74 -11.18l6.59 0 5.59 16.6 5.47 -16.6 6.4 0 -8.25 22.51 -1.48 4.07c-0.54,1.36 -1.06,2.41 -1.55,3.13 -0.5,0.72 -1.06,1.3 -1.7,1.75 -0.64,0.44 -1.42,0.8 -2.35,1.05 -0.93,0.24 -1.99,0.37 -3.17,0.37 -1.19,0 -2.35,-0.13 -3.5,-0.37l-0.55 -4.85c0.97,0.19 1.84,0.28 2.62,0.28 1.44,0 2.51,-0.42 3.2,-1.26 0.68,-0.84 1.22,-1.92 1.59,-3.23l-8.91 -23.45zm62 23.39l-5.74 0 0 -3.44c-0.95,1.34 -2.08,2.33 -3.38,2.99 -1.3,0.65 -2.61,0.97 -3.93,0.97 -2.7,0 -5,-1.08 -6.91,-3.25 -1.91,-2.16 -2.87,-5.18 -2.87,-9.05 0,-3.97 0.93,-6.99 2.79,-9.05 1.87,-2.06 4.23,-3.1 7.08,-3.1 2.6,0 4.87,1.09 6.78,3.27l0 -11.63 6.18 0 0 32.29zm-16.51 -12.21c0,2.5 0.34,4.3 1.04,5.42 0.99,1.61 2.39,2.43 4.17,2.43 1.43,0 2.64,-0.61 3.64,-1.82 1,-1.21 1.5,-3.03 1.5,-5.43 0,-2.69 -0.49,-4.63 -1.45,-5.81 -0.97,-1.18 -2.21,-1.77 -3.73,-1.77 -1.47,0 -2.69,0.59 -3.68,1.75 -1,1.17 -1.49,2.91 -1.49,5.23zm22.62 -14.35l0 -5.73 6.19 0 0 5.73 -6.19 0zm0 26.56l0 -23.39 6.19 0 0 23.39 -6.19 0zm11.95 1.54l7.08 0.85c0.12,0.83 0.39,1.4 0.81,1.7 0.59,0.45 1.51,0.67 2.77,0.67 1.62,0 2.83,-0.24 3.64,-0.73 0.54,-0.33 0.96,-0.85 1.24,-1.57 0.18,-0.51 0.28,-1.46 0.28,-2.84l0 -3.41c-1.85,2.52 -4.19,3.79 -7.01,3.79 -3.14,0 -5.63,-1.33 -7.46,-3.99 -1.44,-2.1 -2.16,-4.71 -2.16,-7.84 0,-3.92 0.95,-6.92 2.84,-8.99 1.88,-2.07 4.23,-3.11 7.03,-3.11 2.89,0 5.28,1.27 7.16,3.82l0 -3.28 5.79 0 0 20.99c0,2.76 -0.23,4.82 -0.69,6.19 -0.45,1.36 -1.09,2.43 -1.9,3.21 -0.83,0.78 -1.93,1.39 -3.3,1.83 -1.37,0.44 -3.11,0.66 -5.21,0.66 -3.97,0 -6.78,-0.68 -8.43,-2.04 -1.66,-1.36 -2.49,-3.08 -2.49,-5.16 0,-0.21 0.01,-0.46 0.01,-0.75zm5.54 -13.72c0,2.48 0.48,4.3 1.44,5.45 0.96,1.15 2.14,1.73 3.56,1.73 1.51,0 2.79,-0.6 3.83,-1.78 1.04,-1.18 1.56,-2.93 1.56,-5.25 0,-2.42 -0.5,-4.22 -1.5,-5.39 -0.99,-1.18 -2.25,-1.77 -3.78,-1.77 -1.49,0 -2.71,0.58 -3.67,1.73 -0.96,1.16 -1.44,2.91 -1.44,5.28zm22.6 -14.38l0 -5.73 6.18 0 0 5.73 -6.18 0zm0 26.56l0 -23.39 6.18 0 0 23.39 -6.18 0zm9.55 0l8.44 -12.06 -8.09 -11.33 7.56 0 4.14 6.42 4.36 -6.42 7.27 0 -7.93 11.07 8.65 12.32 -7.59 0 -4.76 -7.25 -4.8 7.25 -7.25 0zm38.79 -23.39l0 4.93 -4.23 0 0 9.43c0,1.91 0.04,3.02 0.12,3.33 0.08,0.32 0.27,0.58 0.55,0.79 0.29,0.2 0.64,0.31 1.05,0.31 0.57,0 1.4,-0.21 2.48,-0.6l0.54 4.8c-1.45,0.61 -3.07,0.92 -4.9,0.92 -1.11,0 -2.12,-0.19 -3.01,-0.55 -0.89,-0.38 -1.55,-0.87 -1.97,-1.46 -0.42,-0.6 -0.71,-1.4 -0.87,-2.42 -0.13,-0.71 -0.2,-2.17 -0.2,-4.36l0 -10.19 -2.84 0 0 -4.93 2.84 0 0 -4.65 6.21 -3.61 0 8.26 4.23 0zm4.3 -3.17l0 -5.73 6.19 0 0 5.73 -6.19 0zm0 26.56l0 -23.39 6.19 0 0 23.39 -6.19 0zm17.15 -16.26l-5.61 -1.01c0.63,-2.27 1.71,-3.93 3.25,-5.02 1.55,-1.09 3.84,-1.64 6.87,-1.64 2.77,0 4.82,0.34 6.18,0.99 1.34,0.65 2.3,1.48 2.85,2.49 0.55,1 0.82,2.85 0.82,5.54l-0.06 7.22c0,2.06 0.09,3.57 0.3,4.55 0.19,0.97 0.57,2.02 1.11,3.14l-6.13 0c-0.16,-0.42 -0.36,-1.03 -0.59,-1.83 -0.1,-0.37 -0.18,-0.61 -0.22,-0.73 -1.06,1.03 -2.19,1.8 -3.39,2.32 -1.2,0.51 -2.49,0.76 -3.86,0.76 -2.4,0 -4.3,-0.65 -5.69,-1.95 -1.39,-1.31 -2.08,-2.96 -2.08,-4.96 0,-1.32 0.32,-2.5 0.95,-3.54 0.63,-1.04 1.52,-1.82 2.65,-2.37 1.14,-0.55 2.78,-1.03 4.92,-1.45 2.89,-0.54 4.9,-1.05 6.01,-1.52l0 -0.61c0,-1.2 -0.29,-2.04 -0.88,-2.55 -0.58,-0.5 -1.69,-0.76 -3.32,-0.76 -1.11,0 -1.96,0.22 -2.58,0.65 -0.62,0.43 -1.11,1.19 -1.5,2.28zm8.28 5.02c-0.79,0.27 -2.04,0.58 -3.77,0.95 -1.71,0.37 -2.83,0.73 -3.36,1.08 -0.81,0.58 -1.21,1.3 -1.21,2.18 0,0.87 0.32,1.61 0.97,2.24 0.64,0.64 1.46,0.95 2.46,0.95 1.12,0 2.18,-0.37 3.2,-1.1 0.75,-0.55 1.24,-1.24 1.47,-2.05 0.17,-0.52 0.24,-1.53 0.24,-3.01l0 -1.24zm12.19 11.24l0 -32.29 6.19 0 0 32.29 -6.19 0z"/>
 </g>
</svg>